# xmcd
#
# Track frame offsets: 
#        150
#        20712
#        46097
#        70396
#        97836
#        122528
#        157456
#        179184
#        215185
#        238274
#        259478
#
# Disc length: 3717 seconds
#
# Revision: 0
# Processed by: cddbd v1.5.1PL0 Copyright (c) Steve Scherf et al.
# Submitted via: ExactAudioCopy v0.95a5
#
DISCID=ae0e830b
DTITLE=Inside Straight Blues Band - Straight Up...Down and Dirty
DYEAR=2004
DGENRE=
TTITLE0=Never Make My Move Too Soon
TTITLE1=Put the Shoe On the Other Foot
TTITLE2=Everyday I Have the Blues
TTITLE3=Walkin' the Dog
TTITLE4=Early In the Morning
TTITLE5=The Thrill Is Gone
TTITLE6=Let the Good Times Roll
TTITLE7=You Don't Know What Love Is
TTITLE8=Stagger Lee
TTITLE9=Born In Chicago
TTITLE10=I'm Tore Down
EXTD=
EXTT0=
EXTT1=
EXTT2=
EXTT3=
EXTT4=
EXTT5=
EXTT6=
EXTT7=
EXTT8=
EXTT9=
EXTT10=
PLAYORDER=
